<svg width="26" height="26" viewBox="0 0 26 26" fill="none" xmlns="http://www.w3.org/2000/svg">
<path d="M12.5397 22.5503V17.2275L8.31475 21.2917L7.66475 20.6624L12.5397 15.9425V13.0319H9.5335L4.68515 17.726L4.03515 17.0966L8.2062 13.0319H2.7085V12.1408H8.2062L4.0085 8.05019L4.6585 7.42087L9.5335 12.1408H12.5397V9.23016L7.6914 4.53607L8.3414 3.90675L12.5397 7.91866V2.62231H13.4601V7.91866L17.6851 3.88095L18.3351 4.51027L13.4601 9.23016V12.1408H16.4664L21.3147 7.44667L21.9647 8.07599L17.821 12.1408H23.2914V13.0319H17.821L21.9914 17.1224L21.3414 17.7518L16.4664 13.0319H13.4601V15.9425L18.3351 20.6624L17.6851 21.2917L13.4601 17.2275V22.5503H12.5397Z" fill="#E4FF1A"/>
</svg>
