<svg width="24" height="24" viewBox="0 0 24 24" fill="none" xmlns="http://www.w3.org/2000/svg">
<path d="M12 23C10.1333 23 8.33333 22.45 6.6 21.35C4.86667 20.25 3.5 18.9917 2.5 17.575V21H1V15H7V16.5H3.575C4.425 17.7833 5.6375 18.9375 7.2125 19.9625C8.7875 20.9875 10.3833 21.5 12 21.5C13.3 21.5 14.5292 21.25 15.6875 20.75C16.8458 20.25 17.8542 19.5708 18.7125 18.7125C19.5708 17.8542 20.25 16.8458 20.75 15.6875C21.25 14.5292 21.5 13.3 21.5 12H23C23 13.5167 22.7125 14.9417 22.1375 16.275C21.5625 17.6083 20.775 18.775 19.775 19.775C18.775 20.775 17.6083 21.5625 16.275 22.1375C14.9417 22.7125 13.5167 23 12 23ZM11.275 19.175V17.825C10.525 17.625 9.89583 17.3042 9.3875 16.8625C8.87917 16.4208 8.45 15.8167 8.1 15.05L9.375 14.625C9.575 15.2583 9.92917 15.7583 10.4375 16.125C10.9458 16.4917 11.525 16.675 12.175 16.675C12.8417 16.675 13.3958 16.5125 13.8375 16.1875C14.2792 15.8625 14.5 15.4333 14.5 14.9C14.5 14.35 14.2917 13.8875 13.875 13.5125C13.4583 13.1375 12.6917 12.7167 11.575 12.25C10.575 11.8333 9.825 11.3833 9.325 10.9C8.825 10.4167 8.575 9.76667 8.575 8.95C8.575 8.21667 8.825 7.59167 9.325 7.075C9.825 6.55833 10.4917 6.24167 11.325 6.125V4.85H12.7V6.125C13.3333 6.19167 13.8833 6.39167 14.35 6.725C14.8167 7.05833 15.1917 7.51667 15.475 8.1L14.275 8.675C14.025 8.20833 13.7167 7.85833 13.35 7.625C12.9833 7.39167 12.55 7.275 12.05 7.275C11.4 7.275 10.8875 7.425 10.5125 7.725C10.1375 8.025 9.95 8.43333 9.95 8.95C9.95 9.48333 10.1667 9.90833 10.6 10.225C11.0333 10.5417 11.7333 10.9 12.7 11.3C13.85 11.7833 14.6667 12.2917 15.15 12.825C15.6333 13.3583 15.875 14.05 15.875 14.9C15.875 15.3167 15.8 15.7 15.65 16.05C15.5 16.4 15.2875 16.7 15.0125 16.95C14.7375 17.2 14.4 17.4042 14 17.5625C13.6 17.7208 13.15 17.825 12.65 17.875V19.175H11.275ZM1 12C1 10.4833 1.2875 9.05833 1.8625 7.725C2.4375 6.39167 3.225 5.225 4.225 4.225C5.225 3.225 6.39167 2.4375 7.725 1.8625C9.05833 1.2875 10.4833 1 12 1C13.8667 1 15.6667 1.55 17.4 2.65C19.1333 3.75 20.5 5.00833 21.5 6.425V3H23V9H17V7.5H20.425C19.575 6.21667 18.3667 5.0625 16.8 4.0375C15.2333 3.0125 13.6333 2.5 12 2.5C10.7 2.5 9.47083 2.75 8.3125 3.25C7.15417 3.75 6.14583 4.42917 5.2875 5.2875C4.42917 6.14583 3.75 7.15417 3.25 8.3125C2.75 9.47083 2.5 10.7 2.5 12H1Z" fill="black"/>
</svg>
