<svg width="26" height="26" viewBox="0 0 26 26" fill="none" xmlns="http://www.w3.org/2000/svg">
<path d="M14.8414 23.1835L13.975 22.3164L17.821 18.471L7.52891 8.17891L3.68351 12.025L2.81641 11.1585L4.38746 9.58746L3.41246 8.61246L5.68746 6.31016L4.27891 4.92891L4.92891 4.27891L6.33746 5.68746L8.61246 3.41246L9.58746 4.38746L11.1585 2.81641L12.025 3.68351L8.17891 7.52891L18.471 17.821L22.3164 13.975L23.1835 14.8414L21.6125 16.4125L22.5875 17.3875L20.3125 19.6898L21.6937 21.071L21.0437 21.721L19.6625 20.3125L17.3875 22.5875L16.4125 21.6125L14.8414 23.1835Z" fill="#E4FF1A"/>
</svg>
