<svg width="20" height="20" viewBox="0 0 20 20" fill="none" xmlns="http://www.w3.org/2000/svg">
<path d="M12.3957 2.4582C13.3618 2.46109 14.2875 2.84616 14.9707 3.52931C15.6538 4.21246 16.0389 5.13818 16.0418 6.1043V13.3957C16.0389 14.3618 15.6538 15.2875 14.9707 15.9707C14.2875 16.6538 13.3618 17.0389 12.3957 17.0418H5.1043C4.13818 17.0389 3.21246 16.6538 2.52931 15.9707C1.84616 15.2875 1.46109 14.3618 1.4582 13.3957V6.1043C1.46109 5.13818 1.84616 4.21246 2.52931 3.52931C3.21246 2.84616 4.13818 2.46109 5.1043 2.4582H12.3957M12.3957 1H5.1043C2.29687 1 0 3.29687 0 6.1043V13.3957C0 16.2031 2.29687 18.5 5.1043 18.5H12.3957C15.2031 18.5 17.5 16.2031 17.5 13.3957V6.1043C17.5 3.29687 15.2031 1 12.3957 1V1Z" fill="#F6F4F3"/>
<path d="M13.4895 6.10431C13.2731 6.10431 13.0617 6.04016 12.8818 5.91998C12.7019 5.7998 12.5617 5.62898 12.479 5.42912C12.3962 5.22926 12.3745 5.00935 12.4167 4.79718C12.4589 4.58501 12.5631 4.39013 12.7161 4.23716C12.869 4.0842 13.0639 3.98003 13.2761 3.93783C13.4882 3.89562 13.7082 3.91728 13.908 4.00007C14.1079 4.08285 14.2787 4.22304 14.3989 4.4029C14.5191 4.58277 14.5832 4.79424 14.5832 5.01056C14.5835 5.15428 14.5554 5.29665 14.5006 5.42948C14.4457 5.56232 14.3652 5.68302 14.2635 5.78465C14.1619 5.88627 14.0412 5.96683 13.9084 6.02168C13.7755 6.07654 13.6332 6.10462 13.4895 6.10431V6.10431ZM8.75 6.83322C9.32689 6.83322 9.89082 7.00428 10.3705 7.32478C10.8502 7.64529 11.224 8.10083 11.4448 8.6338C11.6655 9.16678 11.7233 9.75325 11.6108 10.3191C11.4982 10.8849 11.2204 11.4046 10.8125 11.8125C10.4046 12.2204 9.88484 12.4982 9.31904 12.6108C8.75324 12.7233 8.16677 12.6655 7.63379 12.4448C7.10082 12.224 6.64528 11.8502 6.32477 11.3705C6.00427 10.8908 5.8332 10.3269 5.8332 9.75001C5.83403 8.97668 6.1416 8.23527 6.68843 7.68844C7.23525 7.14161 7.97667 6.83404 8.75 6.83322M8.75 5.37501C7.88471 5.37501 7.03885 5.6316 6.31938 6.11233C5.59992 6.59306 5.03916 7.27635 4.70803 8.07577C4.3769 8.8752 4.29026 9.75487 4.45907 10.6035C4.62788 11.4522 5.04456 12.2317 5.65641 12.8436C6.26826 13.4555 7.04781 13.8721 7.89648 14.0409C8.74515 14.2098 9.62481 14.1231 10.4242 13.792C11.2237 13.4609 11.907 12.9001 12.3877 12.1806C12.8684 11.4612 13.125 10.6153 13.125 9.75001C13.125 8.58969 12.6641 7.47689 11.8436 6.65642C11.0231 5.83595 9.91032 5.37501 8.75 5.37501V5.37501Z" fill="#F6F4F3"/>
</svg>
