<svg width="24" height="24" viewBox="0 0 24 24" fill="none" xmlns="http://www.w3.org/2000/svg">
<path d="M12 16.55C13.7333 15.15 15.0417 13.8042 15.925 12.5125C16.8083 11.2208 17.25 10.0167 17.25 8.9C17.25 7.91667 17.0708 7.08333 16.7125 6.4C16.3542 5.71667 15.9125 5.15833 15.3875 4.725C14.8625 4.29167 14.2917 3.97917 13.675 3.7875C13.0583 3.59583 12.5 3.5 12 3.5C11.5 3.5 10.9417 3.59583 10.325 3.7875C9.70833 3.97917 9.1375 4.29167 8.6125 4.725C8.0875 5.15833 7.64583 5.71667 7.2875 6.4C6.92917 7.08333 6.75 7.91667 6.75 8.9C6.75 10.0167 7.19167 11.2208 8.075 12.5125C8.95833 13.8042 10.2667 15.15 12 16.55ZM12 18.45C9.71667 16.7333 8.02083 15.0917 6.9125 13.525C5.80417 11.9583 5.25 10.4167 5.25 8.9C5.25 7.76667 5.45417 6.77083 5.8625 5.9125C6.27083 5.05417 6.8 4.33333 7.45 3.75C8.1 3.16667 8.825 2.72917 9.625 2.4375C10.425 2.14583 11.2167 2 12 2C12.7833 2 13.575 2.14583 14.375 2.4375C15.175 2.72917 15.9 3.16667 16.55 3.75C17.2 4.33333 17.7292 5.05417 18.1375 5.9125C18.5458 6.77083 18.75 7.76667 18.75 8.9C18.75 10.4167 18.1958 11.9583 17.0875 13.525C15.9792 15.0917 14.2833 16.7333 12 18.45ZM12 10.5C12.4833 10.5 12.8958 10.3292 13.2375 9.9875C13.5792 9.64583 13.75 9.23333 13.75 8.75C13.75 8.26667 13.5792 7.85417 13.2375 7.5125C12.8958 7.17083 12.4833 7 12 7C11.5167 7 11.1042 7.17083 10.7625 7.5125C10.4208 7.85417 10.25 8.26667 10.25 8.75C10.25 9.23333 10.4208 9.64583 10.7625 9.9875C11.1042 10.3292 11.5167 10.5 12 10.5ZM5.25 22V20.5H18.75V22H5.25Z" fill="#5C675A"/>
</svg>
