<svg width="26" height="26" viewBox="0 0 26 26" fill="none" xmlns="http://www.w3.org/2000/svg">
<path d="M16.0334 17.8209L12.1876 13.9751V8.66675H13.8126V13.298L17.1709 16.6563L16.0334 17.8209ZM12.1876 6.22925V3.79175H13.8126V6.22925H12.1876ZM19.7709 13.8126V12.1876H22.2084V13.8126H19.7709ZM12.1876 22.2084V19.7709H13.8126V22.2084H12.1876ZM3.79175 13.8126V12.1876H6.22925V13.8126H3.79175ZM13.0001 23.8334C11.5195 23.8334 10.1202 23.549 8.80216 22.9803C7.48411 22.4115 6.33307 21.6351 5.34904 20.6511C4.36501 19.6671 3.58862 18.5161 3.01987 17.198C2.45112 15.8799 2.16675 14.4716 2.16675 12.973C2.16675 11.4924 2.45112 10.0931 3.01987 8.77508C3.58862 7.45703 4.36501 6.3105 5.34904 5.3355C6.33307 4.3605 7.48411 3.58862 8.80216 3.01987C10.1202 2.45112 11.5286 2.16675 13.0272 2.16675C14.5077 2.16675 15.907 2.45112 17.2251 3.01987C18.5431 3.58862 19.6897 4.3605 20.6647 5.3355C21.6397 6.3105 22.4115 7.45703 22.9803 8.77508C23.549 10.0931 23.8334 11.5015 23.8334 13.0001C23.8334 14.4806 23.549 15.8799 22.9803 17.198C22.4115 18.5161 21.6397 19.6671 20.6647 20.6511C19.6897 21.6351 18.5431 22.4115 17.2251 22.9803C15.907 23.549 14.4987 23.8334 13.0001 23.8334ZM13.0272 22.2084C15.573 22.2084 17.7397 21.3102 19.5272 19.5136C21.3147 17.7171 22.2084 15.5369 22.2084 12.973C22.2084 10.4272 21.3147 8.2605 19.5272 6.473C17.7397 4.6855 15.564 3.79175 13.0001 3.79175C10.4542 3.79175 8.28307 4.6855 6.48654 6.473C4.69001 8.2605 3.79175 10.4362 3.79175 13.0001C3.79175 15.5459 4.69001 17.7171 6.48654 19.5136C8.28307 21.3102 10.4633 22.2084 13.0272 22.2084Z" fill="#E4FF1A"/>
</svg>
