<svg width="20" height="20" viewBox="0 0 20 20" fill="none" xmlns="http://www.w3.org/2000/svg">
<path d="M15.1458 18.3333C14.4931 18.3333 13.934 18.1007 13.4688 17.6354C13.0035 17.1701 12.7708 16.6111 12.7708 15.9583C12.7708 15.8611 12.7812 15.7465 12.8021 15.6146C12.8229 15.4826 12.8542 15.3611 12.8958 15.25L6.58333 11.5833C6.375 11.8194 6.11806 12.0104 5.8125 12.1562C5.50694 12.3021 5.19444 12.375 4.875 12.375C4.22222 12.375 3.66319 12.1424 3.19792 11.6771C2.73264 11.2118 2.5 10.6528 2.5 9.99999C2.5 9.33332 2.73264 8.77082 3.19792 8.31249C3.66319 7.85416 4.22222 7.62499 4.875 7.62499C5.19444 7.62499 5.5 7.68749 5.79167 7.81249C6.08333 7.93749 6.34722 8.11804 6.58333 8.35416L12.8958 4.72916C12.8542 4.63193 12.8229 4.52082 12.8021 4.39582C12.7812 4.27082 12.7708 4.15277 12.7708 4.04166C12.7708 3.37499 13.0035 2.81249 13.4688 2.35416C13.934 1.89582 14.4931 1.66666 15.1458 1.66666C15.8125 1.66666 16.375 1.89582 16.8333 2.35416C17.2917 2.81249 17.5208 3.37499 17.5208 4.04166C17.5208 4.69443 17.2917 5.25346 16.8333 5.71874C16.375 6.18402 15.8125 6.41666 15.1458 6.41666C14.8264 6.41666 14.5174 6.36457 14.2188 6.26041C13.9201 6.15624 13.6667 5.9861 13.4583 5.74999L7.14583 9.24999C7.17361 9.3611 7.19792 9.48957 7.21875 9.63541C7.23958 9.78124 7.25 9.90277 7.25 9.99999C7.25 10.0972 7.23958 10.2014 7.21875 10.3125C7.19792 10.4236 7.17361 10.5347 7.14583 10.6458L13.4583 14.2292C13.6667 14.0347 13.9097 13.8785 14.1875 13.7604C14.4653 13.6424 14.7847 13.5833 15.1458 13.5833C15.8125 13.5833 16.375 13.8125 16.8333 14.2708C17.2917 14.7292 17.5208 15.2917 17.5208 15.9583C17.5208 16.6111 17.2917 17.1701 16.8333 17.6354C16.375 18.1007 15.8125 18.3333 15.1458 18.3333ZM15.1458 5.16666C15.4653 5.16666 15.7326 5.05902 15.9479 4.84374C16.1632 4.62846 16.2708 4.3611 16.2708 4.04166C16.2708 3.72221 16.1632 3.45485 15.9479 3.23957C15.7326 3.0243 15.4653 2.91666 15.1458 2.91666C14.8264 2.91666 14.559 3.0243 14.3437 3.23957C14.1285 3.45485 14.0208 3.72221 14.0208 4.04166C14.0208 4.3611 14.1285 4.62846 14.3437 4.84374C14.559 5.05902 14.8264 5.16666 15.1458 5.16666ZM4.875 11.125C5.19444 11.125 5.46181 11.0174 5.67708 10.8021C5.89236 10.5868 6 10.3194 6 9.99999C6 9.68054 5.89236 9.41318 5.67708 9.19791C5.46181 8.98263 5.19444 8.87499 4.875 8.87499C4.55556 8.87499 4.28819 8.98263 4.07292 9.19791C3.85764 9.41318 3.75 9.68054 3.75 9.99999C3.75 10.3194 3.85764 10.5868 4.07292 10.8021C4.28819 11.0174 4.55556 11.125 4.875 11.125ZM15.1458 17.0833C15.4653 17.0833 15.7326 16.9757 15.9479 16.7604C16.1632 16.5451 16.2708 16.2778 16.2708 15.9583C16.2708 15.6389 16.1632 15.3715 15.9479 15.1562C15.7326 14.941 15.4653 14.8333 15.1458 14.8333C14.8264 14.8333 14.559 14.941 14.3437 15.1562C14.1285 15.3715 14.0208 15.6389 14.0208 15.9583C14.0208 16.2778 14.1285 16.5451 14.3437 16.7604C14.559 16.9757 14.8264 17.0833 15.1458 17.0833Z" fill="#F6F4F3"/>
</svg>
