<svg width="20" height="20" viewBox="0 0 38 38" fill="none" xmlns="http://www.w3.org/2000/svg">
<path d="M37.2044 9.79447C36.9899 8.98599 36.5668 8.24805 35.9774 7.65451C35.388 7.06097 34.6531 6.63266 33.8461 6.41247C30.8833 5.61328 19 5.61328 19 5.61328C19 5.61328 7.11669 5.61328 4.15269 6.41247C3.34607 6.63306 2.61149 7.06152 2.02237 7.65502C1.43326 8.24851 1.01024 8.98624 0.795625 9.79447C0 12.7775 0 19 0 19C0 19 0 25.2225 0.795625 28.2055C1.01002 29.014 1.4331 29.752 2.02249 30.3456C2.61187 30.9391 3.34688 31.3674 4.15387 31.5875C7.1155 32.3867 18.9988 32.3867 18.9988 32.3867C18.9988 32.3867 30.8821 32.3867 33.8461 31.5875C34.6533 31.3676 35.3886 30.9394 35.9782 30.3458C36.5678 29.7522 36.9911 29.0141 37.2056 28.2055C38 25.2225 38 19 38 19C38 19 38 12.7775 37.2044 9.79447ZM15.1133 24.6501V13.351L25.0444 19L15.1121 24.6489L15.1133 24.6501Z" fill="white"/>
</svg>
