<svg width="241" height="21" viewBox="0 0 241 21" fill="none" xmlns="http://www.w3.org/2000/svg">
<path d="M0.504 20L4.176 0.559999H9.072L12.696 20H8.736L8.088 15.896H5.232L4.56 20H0.504ZM5.616 13.328H7.68L6.648 5.744L5.616 13.328ZM27.1221 20.288C25.6501 20.288 24.4821 20.024 23.6181 19.496C22.7701 18.952 22.1701 18.2 21.8181 17.24C21.4661 16.264 21.2901 15.12 21.2901 13.808V6.8C21.2901 5.456 21.4661 4.304 21.8181 3.344C22.1701 2.368 22.7701 1.616 23.6181 1.088C24.4821 0.559999 25.6501 0.295999 27.1221 0.295999C28.5621 0.295999 29.6821 0.535999 30.4821 1.016C31.2981 1.48 31.8741 2.136 32.2101 2.984C32.5461 3.832 32.7141 4.808 32.7141 5.912V7.592H28.5141V5.648C28.5141 5.264 28.4901 4.896 28.4421 4.544C28.4101 4.192 28.2981 3.904 28.1061 3.68C27.9141 3.44 27.5861 3.32 27.1221 3.32C26.6741 3.32 26.3381 3.44 26.1141 3.68C25.9061 3.92 25.7701 4.224 25.7061 4.592C25.6581 4.944 25.6341 5.32 25.6341 5.72V14.864C25.6341 15.296 25.6661 15.696 25.7301 16.064C25.8101 16.416 25.9541 16.704 26.1621 16.928C26.3861 17.136 26.7061 17.24 27.1221 17.24C27.5701 17.24 27.8901 17.128 28.0821 16.904C28.2741 16.664 28.3941 16.36 28.4421 15.992C28.4901 15.624 28.5141 15.248 28.5141 14.864V12.824H32.7141V14.504C32.7141 15.608 32.5461 16.6 32.2101 17.48C31.8901 18.344 31.3221 19.032 30.5061 19.544C29.7061 20.04 28.5781 20.288 27.1221 20.288ZM41.3415 20L45.0135 0.559999H49.9095L53.5335 20H49.5735L48.9255 15.896H46.0695L45.3975 20H41.3415ZM46.4535 13.328H48.5175L47.4855 5.744L46.4535 13.328ZM62.6962 20V0.559999H67.6162C69.3122 0.559999 70.6322 0.775999 71.5762 1.208C72.5202 1.624 73.1842 2.288 73.5682 3.2C73.9522 4.096 74.1442 5.264 74.1442 6.704V13.76C74.1442 15.216 73.9522 16.408 73.5682 17.336C73.1842 18.248 72.5202 18.92 71.5762 19.352C70.6482 19.784 69.3442 20 67.6642 20H62.6962ZM66.9922 17.024H67.6642C68.3202 17.024 68.7922 16.928 69.0802 16.736C69.3682 16.544 69.5442 16.256 69.6082 15.872C69.6882 15.488 69.7282 15.008 69.7282 14.432V5.96C69.7282 5.384 69.6802 4.92 69.5842 4.568C69.5042 4.216 69.3202 3.96 69.0322 3.8C68.7442 3.64 68.2802 3.56 67.6402 3.56H66.9922V17.024ZM83.9588 20V0.559999H92.6948V3.488H88.2548V8.312H91.6388V11.288H88.2548V17.096H92.7428V20H83.9588ZM101.821 20L102.157 0.559999H106.765L108.901 11.864L111.205 0.559999H115.645L115.981 20H112.933L112.573 7.064L110.317 20H107.605L105.205 6.968L104.917 20H101.821ZM128.252 20V12.056L124.556 0.559999H128.612L130.46 6.704L132.116 0.559999H136.004L132.38 12.056V20H128.252ZM144.84 20V0.559999H151.368C152.536 0.559999 153.496 0.783998 154.248 1.232C155 1.664 155.56 2.304 155.928 3.152C156.296 3.984 156.48 5 156.48 6.2C156.48 7.704 156.232 8.856 155.736 9.656C155.24 10.44 154.568 10.984 153.72 11.288C152.872 11.592 151.92 11.744 150.864 11.744H149.136V20H144.84ZM149.136 8.744H150.576C151.104 8.744 151.504 8.648 151.776 8.456C152.048 8.264 152.224 7.976 152.304 7.592C152.4 7.208 152.448 6.72 152.448 6.128C152.448 5.632 152.408 5.2 152.328 4.832C152.264 4.448 152.096 4.144 151.824 3.92C151.552 3.696 151.128 3.584 150.552 3.584H149.136V8.744ZM171.319 20.288C169.863 20.288 168.711 20.032 167.863 19.52C167.015 19.008 166.407 18.272 166.039 17.312C165.671 16.352 165.487 15.208 165.487 13.88V6.656C165.487 5.312 165.671 4.168 166.039 3.224C166.407 2.28 167.015 1.56 167.863 1.064C168.711 0.551999 169.863 0.295999 171.319 0.295999C172.791 0.295999 173.951 0.551999 174.799 1.064C175.663 1.56 176.279 2.28 176.647 3.224C177.015 4.168 177.199 5.312 177.199 6.656V13.88C177.199 15.208 177.015 16.352 176.647 17.312C176.279 18.272 175.663 19.008 174.799 19.52C173.951 20.032 172.791 20.288 171.319 20.288ZM171.319 17.24C171.767 17.24 172.095 17.128 172.303 16.904C172.511 16.68 172.647 16.392 172.711 16.04C172.775 15.688 172.807 15.328 172.807 14.96V5.6C172.807 5.216 172.775 4.856 172.711 4.52C172.647 4.168 172.511 3.88 172.303 3.656C172.095 3.432 171.767 3.32 171.319 3.32C170.903 3.32 170.591 3.432 170.383 3.656C170.175 3.88 170.039 4.168 169.975 4.52C169.911 4.856 169.879 5.216 169.879 5.6V14.96C169.879 15.328 169.903 15.688 169.951 16.04C170.015 16.392 170.143 16.68 170.335 16.904C170.543 17.128 170.871 17.24 171.319 17.24ZM188.573 20L186.221 0.559999H189.869L191.021 11.888L192.485 0.584H195.341L196.877 11.816L198.053 0.559999H201.653L199.325 20H195.581L193.925 8.264L192.365 20H188.573ZM210.948 20V0.559999H219.684V3.488H215.244V8.312H218.628V11.288H215.244V17.096H219.732V20H210.948ZM228.882 20V0.559999H234.234C235.546 0.559999 236.682 0.703999 237.642 0.991999C238.602 1.28 239.346 1.8 239.874 2.552C240.418 3.288 240.69 4.336 240.69 5.696C240.69 6.496 240.626 7.208 240.498 7.832C240.37 8.456 240.13 9 239.778 9.464C239.442 9.912 238.954 10.288 238.314 10.592L240.978 20H236.538L234.402 11.288H233.178V20H228.882ZM233.178 8.816H234.378C234.986 8.816 235.458 8.712 235.794 8.504C236.13 8.28 236.362 7.968 236.49 7.568C236.634 7.152 236.706 6.656 236.706 6.08C236.706 5.248 236.554 4.6 236.25 4.136C235.946 3.672 235.386 3.44 234.57 3.44H233.178V8.816Z" fill="#F6F4F3"/>
</svg>
